<svg width="282" height="37" viewBox="0 0 282 37" fill="none" xmlns="http://www.w3.org/2000/svg">
<path d="M0 1.97296H35.027V37H0V1.97296Z" fill="#231F20"/>
<path d="M0.972961 2.94592H34.054V36.027H0.972961V2.94592Z" fill="#FFF200"/>
<path d="M17.5031 23.5L28.0315 34.0811L32.1437 29.9434L21.6195 19.3623L23.6651 17.3039V13.1662L25.1317 11.6948V15.1072L26.5524 16.5368L31.702 11.3552L33.0811 12.7428C33.0347 10.3543 32.0734 8.07599 30.398 6.38328C27.6398 3.70447 24.8984 5.26397 23.9526 6.21979L18.9863 11.2127L20.2362 12.4703L17.4823 15.1953L14.7491 12.4494L15.9991 11.1917L11.0244 6.21979C10.0787 5.27235 7.33721 3.70447 4.59992 6.38747C2.92531 8.07482 1.97283 10.3542 1.94595 12.7386L3.29168 11.3804L8.42463 16.5368L9.85369 15.0988V11.6948L11.3202 13.1662V17.283L13.3743 19.3497L2.95838 29.8302L7.0664 33.9847L17.4823 23.5042" fill="#231F20"/>
<path fill-rule="evenodd" clip-rule="evenodd" d="M48.15 1.97296H42.8108V15.5946H46.4176V11.0955L49.144 15.5903H53.5135L49.9067 10.1434C51.1239 9.69731 52.6128 8.62937 52.6128 6.05602C52.6128 5.43841 52.4587 1.97296 48.15 1.97296ZM48.9979 6.5278C48.9979 7.32554 48.5922 8.10612 47.3061 8.10612V8.10183H46.4217V4.97092H47.3061C48.5922 4.97092 48.9979 5.73006 48.9979 6.5278Z" fill="#231F20"/>
<path fill-rule="evenodd" clip-rule="evenodd" d="M69.0811 6.18683H65.8189V7.31048C65.1171 6.35663 63.9603 5.81327 62.7494 5.86874C59.6627 5.86874 58.3784 8.43413 58.3784 10.7227C58.3784 13.7756 60.3605 15.5933 62.7494 15.5933C63.9462 15.6247 65.0867 15.1029 65.8189 14.1887V15.2545H69.0811V6.18683ZM65.9559 10.7126C65.9559 10.716 65.9559 10.7194 65.9559 10.7227V10.7021C65.9559 10.7056 65.9559 10.7091 65.9559 10.7126ZM63.9181 8.56632C65.0966 8.56632 65.9515 9.40472 65.9559 10.7126C65.9515 12.0531 65.118 12.875 63.9181 12.875C62.5182 12.875 61.8974 11.772 61.8974 10.7227C61.8974 9.67344 62.5011 8.56632 63.9181 8.56632Z" fill="#231F20"/>
<path fill-rule="evenodd" clip-rule="evenodd" d="M79.636 3.05713C79.3351 2.40095 78.6253 1.97298 77.8378 1.97298C77.3218 1.97074 76.8261 2.15431 76.4608 2.48295C76.0954 2.81159 75.8907 3.25811 75.8919 3.72343C75.89 4.4335 76.3629 5.07459 77.0899 5.3475C77.8169 5.62041 78.6546 5.47133 79.2121 4.96984C79.7696 4.46834 79.937 3.71331 79.636 3.05713ZM79.6953 6.39318H75.999V15.5946H79.6953V6.39318Z" fill="#231F20"/>
<path d="M85.8981 8.10256H84.6487V5.80479H85.8981V4.0704C85.8981 3.39435 85.9593 1 89.5853 1C90.2109 1.01558 90.8338 1.08291 91.4464 1.20121V3.54324C91.1457 3.4069 90.8194 3.32494 90.4852 3.30179C89.4324 3.30179 89.3756 4.25148 89.3756 4.65389V5.80479H91.4595V8.10256H89.3756V14.6216H85.8981V8.10256" fill="#231F20"/>
<path d="M96.6032 8.10046H95.3513V5.80337H96.6032V4.06949C96.6032 3.39364 96.6601 1 100.298 1C100.924 1.01533 101.548 1.08265 102.162 1.20115V3.54249C101.858 3.40659 101.528 3.326 101.19 3.30514C100.14 3.30514 100.079 4.25455 100.079 4.65684V5.80739H102.162V8.10448H100.079V14.6216H96.6032V8.10046" fill="#231F20"/>
<path fill-rule="evenodd" clip-rule="evenodd" d="M111.926 15.5946C112.695 15.5946 115.656 15.5946 116.68 12.4988H113.61C113.445 13.2345 112.804 13.6272 111.93 13.6272C110.649 13.6272 109.992 12.598 110.028 11.4531H116.752C116.825 9.42775 116.095 5.86487 111.89 5.86487C108.872 5.86487 107.027 7.85297 107.027 10.7215C107.027 13.8876 109.182 15.5946 111.926 15.5946ZM113.163 8.36215C113.5 8.70766 113.688 9.17834 113.682 9.66748H110.101C110.103 8.65489 110.903 7.83458 111.89 7.83231C112.366 7.82559 112.825 8.01664 113.163 8.36215Z" fill="#231F20"/>
<path fill-rule="evenodd" clip-rule="evenodd" d="M127.312 3.05713C127.011 2.40095 126.301 1.97298 125.513 1.97298C124.997 1.97074 124.502 2.15431 124.136 2.48295C123.771 2.81159 123.566 3.25811 123.568 3.72343C123.566 4.4335 124.039 5.07459 124.766 5.3475C125.493 5.62041 126.33 5.47133 126.888 4.96984C127.445 4.46834 127.613 3.71331 127.312 3.05713ZM127.348 6.39318H123.651V15.5946H127.348V6.39318Z" fill="#231F20"/>
<path d="M133.249 12.4088C134.009 12.9125 134.896 13.1987 135.81 13.2355C136.589 13.2355 136.781 12.8593 136.781 12.5948C136.781 11.9954 136.057 11.9044 135.714 11.8465C133.722 11.5448 132.621 10.8338 132.621 9.05207C132.621 7.34479 133.722 5.86487 136.388 5.86487C137.629 5.86384 138.855 6.13344 139.978 6.65444L138.915 8.7627C138.303 8.32649 137.577 8.07259 136.823 8.03101C135.856 8.03101 135.814 8.61388 135.814 8.7999C135.814 9.3249 136.082 9.47785 137.43 9.62667C137.94 9.68041 140.108 10.0029 140.108 12.3633C140.108 13.9961 139.083 15.5877 136.045 15.5877C134.738 15.6473 133.442 15.3206 132.324 14.6493L133.253 12.3798" fill="#231F20"/>
<path fill-rule="evenodd" clip-rule="evenodd" d="M150.847 15.5946C151.613 15.5946 154.579 15.5946 155.598 12.4988H152.527C152.362 13.2345 151.725 13.6272 150.847 13.6272C149.561 13.6272 148.904 12.598 148.94 11.4531H155.671C155.744 9.42775 155.014 5.86487 150.806 5.86487C147.792 5.86487 145.946 7.85297 145.946 10.7215C145.946 13.8876 148.102 15.5946 150.847 15.5946ZM152.083 8.36238C152.42 8.70802 152.606 9.17873 152.6 9.66748H149.017C149.021 8.65422 149.822 7.83457 150.81 7.83231C151.287 7.82556 151.746 8.01675 152.083 8.36238Z" fill="#231F20"/>
<path d="M162.486 6.22969H165.866V7.31486C166.584 6.36996 167.713 5.83074 168.896 5.86655C171.927 5.86655 172.216 8.57946 172.216 10.1132V15.5903H168.837V10.4379C168.837 9.87397 168.798 8.67345 167.641 8.67345C166.79 8.67345 165.866 9.37411 165.866 10.9805V15.5946H162.486V6.22969" fill="#231F20"/>
<path fill-rule="evenodd" clip-rule="evenodd" d="M55.5186 21.5715C54.5004 20.5063 53.0732 20.4595 52.0951 20.4595L44.723 20.4637L42.8108 37H50.7802C53.2496 37 54.4963 35.9859 55.0937 35.3468C55.9529 34.4329 56.426 33.1873 56.4045 31.8955C56.4414 30.932 56.122 29.9914 55.5146 29.2751C54.9904 28.7199 54.3287 28.3343 53.6064 28.1631V28.1162C54.119 27.9342 54.5998 27.6636 55.0295 27.3151C55.9609 26.5508 56.483 25.3518 56.4286 24.1025C56.4639 23.162 56.135 22.2473 55.5186 21.5715ZM50.1589 26.9572C50.6825 26.9753 51.2021 26.8537 51.6702 26.6036C52.1226 26.2986 52.3788 25.7523 52.3356 25.1847C52.3634 24.7374 52.1687 24.3074 51.8225 24.0514C51.4248 23.8311 50.9798 23.7254 50.5317 23.7446H48.7117L48.3309 26.9572H50.1589ZM49.5175 33.668C50.122 33.7191 50.7283 33.597 51.2733 33.3144C51.7863 33.0023 52.0879 32.4075 52.051 31.7805C52.0737 31.3212 51.8817 30.8795 51.5379 30.6002C51.137 30.2935 50.5157 30.2722 49.9344 30.2722H47.9781L47.5772 33.6808L49.5175 33.668Z" fill="#231F20"/>
<path fill-rule="evenodd" clip-rule="evenodd" d="M69.3261 20.4595H63.9774L56.4324 37H61.1977L62.4538 34.1403H67.8025L68.3415 37H72.973L69.3261 20.4595ZM67.3082 30.5006H63.714L66.1614 24.406L67.3082 30.5006Z" fill="#231F20"/>
<path d="M74.9189 37H79.1613L80.3272 27.074L85.0877 37H89.5285L91.4595 20.4595H87.217L86.0714 30.2193L81.4728 20.4595H76.8458L74.9189 37V37Z" fill="#231F20"/>
<path d="M98.0601 27.4064L103.708 20.4595H108.973L101.926 28.5912L107.166 37H101.765L97.763 29.8869L96.9172 37H92.4324L94.4005 20.4595H98.8853L98.0601 27.4064V27.4064Z" fill="#231F20"/>
<path fill-rule="evenodd" clip-rule="evenodd" d="M124.781 20.4595H119.426L111.892 37H116.667L117.921 34.1403H123.272L123.816 37H128.432L124.781 20.4595ZM122.777 30.5006H119.178L121.633 24.406L122.777 30.5006Z" fill="#231F20"/>
<path d="M134.759 37H139.03L146.919 20.4595H142.198L137.636 31.3785L135.504 20.4595H130.378L134.759 37V37Z" fill="#231F20"/>
<path fill-rule="evenodd" clip-rule="evenodd" d="M157.864 20.4595H152.511L144.973 37H149.746L151.003 34.1403H156.355L156.895 37H161.514L157.864 20.4595ZM155.861 30.5006H152.264L154.713 24.406L155.861 30.5006Z" fill="#231F20"/>
<path d="M163.459 37H172.708L173.189 33.0279H168.406L169.886 20.4595H165.419L163.459 37V37Z" fill="#231F20"/>
<path d="M190 2V37" stroke="black"/>
<path d="M207.368 2.994H210.842C211.526 3.006 212.114 3.084 212.606 3.228C213.098 3.372 213.53 3.594 213.902 3.894C214.286 4.218 214.58 4.614 214.784 5.082C214.988 5.538 215.09 6.042 215.09 6.594C215.078 7.194 214.952 7.74 214.712 8.232C214.484 8.712 214.142 9.108 213.686 9.42C213.482 9.564 213.272 9.678 213.056 9.762C212.84 9.846 212.612 9.906 212.372 9.942L216.116 15H213.2L209.996 10.176H209.708V15H207.368V2.994ZM209.708 4.902V8.52H210.374C211.13 8.52 211.7 8.358 212.084 8.034C212.48 7.71 212.678 7.266 212.678 6.702C212.678 6.15 212.486 5.718 212.102 5.406C211.73 5.082 211.166 4.914 210.41 4.902H209.708ZM223.356 8.214V7.206H225.552V15H223.356V13.992C223.068 14.412 222.72 14.73 222.312 14.946C221.916 15.15 221.466 15.252 220.962 15.252C219.786 15.252 218.826 14.856 218.082 14.064C217.35 13.26 216.984 12.27 216.984 11.094C216.984 9.93 217.344 8.952 218.064 8.16C218.784 7.356 219.714 6.954 220.854 6.954C221.406 6.954 221.892 7.062 222.312 7.278C222.732 7.494 223.08 7.806 223.356 8.214ZM221.412 8.898C220.776 8.898 220.254 9.114 219.846 9.546C219.45 9.966 219.252 10.482 219.252 11.094C219.252 11.73 219.45 12.258 219.846 12.678C220.254 13.098 220.776 13.308 221.412 13.308C222.036 13.308 222.546 13.098 222.942 12.678C223.35 12.258 223.56 11.73 223.572 11.094C223.572 10.482 223.368 9.966 222.96 9.546C222.552 9.114 222.036 8.898 221.412 8.898ZM227.646 7.206H229.842V15H227.646V7.206ZM227.43 3.912C227.43 3.552 227.556 3.246 227.808 2.994C228.06 2.73 228.372 2.598 228.744 2.598C229.104 2.598 229.41 2.73 229.662 2.994C229.926 3.246 230.058 3.552 230.058 3.912C230.058 4.284 229.926 4.596 229.662 4.848C229.41 5.1 229.104 5.226 228.744 5.226C228.372 5.226 228.06 5.1 227.808 4.848C227.556 4.596 227.43 4.284 227.43 3.912ZM236.183 9.078H234.167V15H231.971V9.078H231.143V7.206H231.971V4.704C231.959 4.044 232.037 3.498 232.205 3.066C232.373 2.622 232.637 2.25 232.997 1.95C233.237 1.746 233.519 1.59 233.843 1.482C234.167 1.362 234.527 1.302 234.923 1.302C235.151 1.302 235.367 1.326 235.571 1.374C235.775 1.422 235.979 1.488 236.183 1.572V3.57C236.027 3.462 235.871 3.384 235.715 3.336C235.559 3.276 235.385 3.246 235.193 3.246C235.001 3.246 234.839 3.282 234.707 3.354C234.587 3.414 234.485 3.51 234.401 3.642C234.317 3.774 234.257 3.942 234.221 4.146C234.185 4.338 234.167 4.62 234.167 4.992V7.206H236.183V9.078ZM237.028 13.83C237.016 13.446 237.148 13.116 237.424 12.84C237.7 12.564 238.036 12.426 238.432 12.426C238.816 12.426 239.14 12.564 239.404 12.84C239.68 13.116 239.824 13.446 239.836 13.83C239.836 14.226 239.698 14.562 239.422 14.838C239.146 15.102 238.816 15.234 238.432 15.234C238.036 15.222 237.7 15.084 237.424 14.82C237.148 14.556 237.016 14.226 237.028 13.83ZM207.368 20.994H209.708V33H207.368V20.994ZM215.832 27.078H214.32V33H212.124V27.078H211.26V25.206H212.124V22.542H214.32V25.206H215.832V27.078ZM216.688 25.602L218.596 20.76L220.612 20.994L218.074 25.764L216.688 25.602ZM228.966 25.782L227.886 27.06C227.694 26.892 227.484 26.766 227.256 26.682C227.04 26.586 226.824 26.538 226.608 26.538C226.344 26.538 226.134 26.598 225.978 26.718C225.834 26.826 225.762 26.976 225.762 27.168C225.75 27.336 225.804 27.48 225.924 27.6C226.056 27.72 226.236 27.81 226.464 27.87L226.986 28.032C227.514 28.2 227.934 28.374 228.246 28.554C228.558 28.734 228.798 28.932 228.966 29.148C229.086 29.316 229.182 29.514 229.254 29.742C229.326 29.97 229.362 30.204 229.362 30.444C229.35 30.864 229.266 31.242 229.11 31.578C228.966 31.902 228.762 32.184 228.498 32.424C228.186 32.712 227.838 32.916 227.454 33.036C227.07 33.168 226.638 33.24 226.158 33.252C225.57 33.252 225.018 33.15 224.502 32.946C223.986 32.73 223.53 32.4 223.134 31.956L224.286 30.624C224.502 30.888 224.76 31.104 225.06 31.272C225.372 31.44 225.69 31.524 226.014 31.524C226.326 31.524 226.584 31.452 226.788 31.308C226.992 31.152 227.094 30.942 227.094 30.678C227.082 30.51 227.022 30.36 226.914 30.228C226.806 30.096 226.638 29.982 226.41 29.886L225.906 29.706C225.462 29.55 225.114 29.4 224.862 29.256C224.61 29.112 224.4 28.95 224.232 28.77C224.04 28.578 223.89 28.362 223.782 28.122C223.674 27.87 223.626 27.588 223.638 27.276C223.638 26.916 223.71 26.586 223.854 26.286C223.998 25.974 224.196 25.716 224.448 25.512C224.664 25.332 224.934 25.194 225.258 25.098C225.582 25.002 225.99 24.954 226.482 24.954C226.974 24.954 227.418 25.026 227.814 25.17C228.222 25.314 228.606 25.518 228.966 25.782ZM240.75 30.498L242.766 30.822C242.454 31.566 241.974 32.16 241.326 32.604C240.69 33.036 239.892 33.252 238.932 33.252C238.296 33.24 237.732 33.15 237.24 32.982C236.76 32.802 236.328 32.526 235.944 32.154C235.512 31.758 235.2 31.308 235.008 30.804C234.816 30.3 234.72 29.736 234.72 29.112C234.72 28.476 234.822 27.906 235.026 27.402C235.23 26.886 235.524 26.436 235.908 26.052C236.28 25.68 236.706 25.41 237.186 25.242C237.678 25.062 238.23 24.966 238.842 24.954C239.49 24.966 240.066 25.08 240.57 25.296C241.086 25.512 241.524 25.824 241.884 26.232C242.184 26.592 242.412 27.024 242.568 27.528C242.736 28.032 242.82 28.62 242.82 29.292V29.472H236.988C236.976 29.712 237 29.952 237.06 30.192C237.132 30.42 237.234 30.618 237.366 30.786C237.522 31.014 237.732 31.194 237.996 31.326C238.26 31.458 238.572 31.524 238.932 31.524C239.328 31.524 239.682 31.434 239.994 31.254C240.306 31.074 240.558 30.822 240.75 30.498ZM237.06 28.068H240.75C240.666 27.624 240.456 27.252 240.12 26.952C239.784 26.652 239.376 26.502 238.896 26.502C238.452 26.502 238.05 26.64 237.69 26.916C237.342 27.192 237.132 27.576 237.06 28.068ZM250.497 26.214V25.206H252.693V33H250.497V31.992C250.209 32.412 249.861 32.73 249.453 32.946C249.057 33.15 248.607 33.252 248.103 33.252C246.927 33.252 245.967 32.856 245.223 32.064C244.491 31.26 244.125 30.27 244.125 29.094C244.125 27.93 244.485 26.952 245.205 26.16C245.925 25.356 246.855 24.954 247.995 24.954C248.547 24.954 249.033 25.062 249.453 25.278C249.873 25.494 250.221 25.806 250.497 26.214ZM248.553 26.898C247.917 26.898 247.395 27.114 246.987 27.546C246.591 27.966 246.393 28.482 246.393 29.094C246.393 29.73 246.591 30.258 246.987 30.678C247.395 31.098 247.917 31.308 248.553 31.308C249.177 31.308 249.687 31.098 250.083 30.678C250.491 30.258 250.701 29.73 250.713 29.094C250.713 28.482 250.509 27.966 250.101 27.546C249.693 27.114 249.177 26.898 248.553 26.898ZM260.114 25.782L259.034 27.06C258.842 26.892 258.632 26.766 258.404 26.682C258.188 26.586 257.972 26.538 257.756 26.538C257.492 26.538 257.282 26.598 257.126 26.718C256.982 26.826 256.91 26.976 256.91 27.168C256.898 27.336 256.952 27.48 257.072 27.6C257.204 27.72 257.384 27.81 257.612 27.87L258.134 28.032C258.662 28.2 259.082 28.374 259.394 28.554C259.706 28.734 259.946 28.932 260.114 29.148C260.234 29.316 260.33 29.514 260.402 29.742C260.474 29.97 260.51 30.204 260.51 30.444C260.498 30.864 260.414 31.242 260.258 31.578C260.114 31.902 259.91 32.184 259.646 32.424C259.334 32.712 258.986 32.916 258.602 33.036C258.218 33.168 257.786 33.24 257.306 33.252C256.718 33.252 256.166 33.15 255.65 32.946C255.134 32.73 254.678 32.4 254.282 31.956L255.434 30.624C255.65 30.888 255.908 31.104 256.208 31.272C256.52 31.44 256.838 31.524 257.162 31.524C257.474 31.524 257.732 31.452 257.936 31.308C258.14 31.152 258.242 30.942 258.242 30.678C258.23 30.51 258.17 30.36 258.062 30.228C257.954 30.096 257.786 29.982 257.558 29.886L257.054 29.706C256.61 29.55 256.262 29.4 256.01 29.256C255.758 29.112 255.548 28.95 255.38 28.77C255.188 28.578 255.038 28.362 254.93 28.122C254.822 27.87 254.774 27.588 254.786 27.276C254.786 26.916 254.858 26.586 255.002 26.286C255.146 25.974 255.344 25.716 255.596 25.512C255.812 25.332 256.082 25.194 256.406 25.098C256.73 25.002 257.138 24.954 257.63 24.954C258.122 24.954 258.566 25.026 258.962 25.17C259.37 25.314 259.754 25.518 260.114 25.782ZM262.064 25.206H264.26V33H262.064V25.206ZM261.848 21.912C261.848 21.552 261.974 21.246 262.226 20.994C262.478 20.73 262.79 20.598 263.162 20.598C263.522 20.598 263.828 20.73 264.08 20.994C264.344 21.246 264.476 21.552 264.476 21.912C264.476 22.284 264.344 22.596 264.08 22.848C263.828 23.1 263.522 23.226 263.162 23.226C262.79 23.226 262.478 23.1 262.226 22.848C261.974 22.596 261.848 22.284 261.848 21.912ZM271.987 30.498L274.003 30.822C273.691 31.566 273.211 32.16 272.563 32.604C271.927 33.036 271.129 33.252 270.169 33.252C269.533 33.24 268.969 33.15 268.477 32.982C267.997 32.802 267.565 32.526 267.181 32.154C266.749 31.758 266.437 31.308 266.245 30.804C266.053 30.3 265.957 29.736 265.957 29.112C265.957 28.476 266.059 27.906 266.263 27.402C266.467 26.886 266.761 26.436 267.145 26.052C267.517 25.68 267.943 25.41 268.423 25.242C268.915 25.062 269.467 24.966 270.079 24.954C270.727 24.966 271.303 25.08 271.807 25.296C272.323 25.512 272.761 25.824 273.121 26.232C273.421 26.592 273.649 27.024 273.805 27.528C273.973 28.032 274.057 28.62 274.057 29.292V29.472H268.225C268.213 29.712 268.237 29.952 268.297 30.192C268.369 30.42 268.471 30.618 268.603 30.786C268.759 31.014 268.969 31.194 269.233 31.326C269.497 31.458 269.809 31.524 270.169 31.524C270.565 31.524 270.919 31.434 271.231 31.254C271.543 31.074 271.795 30.822 271.987 30.498ZM268.297 28.068H271.987C271.903 27.624 271.693 27.252 271.357 26.952C271.021 26.652 270.613 26.502 270.133 26.502C269.689 26.502 269.287 26.64 268.927 26.916C268.579 27.192 268.369 27.576 268.297 28.068ZM275.757 33V25.206H277.953V26.376C278.061 26.148 278.199 25.944 278.367 25.764C278.547 25.572 278.733 25.416 278.925 25.296C279.093 25.188 279.285 25.11 279.501 25.062C279.717 25.002 279.957 24.966 280.221 24.954C280.377 24.954 280.527 24.972 280.671 25.008C280.827 25.032 280.989 25.074 281.157 25.134L280.869 27.186C280.713 27.09 280.557 27.018 280.401 26.97C280.245 26.922 280.059 26.898 279.843 26.898C279.495 26.898 279.201 26.958 278.961 27.078C278.733 27.186 278.541 27.336 278.385 27.528C278.229 27.732 278.115 27.96 278.043 28.212C277.983 28.464 277.953 28.812 277.953 29.256V33H275.757Z" fill="black"/>
</svg>
